# Blender 4.4.1
# www.blender.org
mtllib enemy.mtl
o Cube
v 0.382888 0.527017 0.366109
v 0.382888 -0.251760 0.366109
v -0.395405 0.314362 0.151690
v -0.395405 -0.039105 0.151690
v 0.384654 0.527017 -0.412665
v 0.384654 -0.251760 -0.412665
v -0.394603 0.314362 -0.201777
v -0.394603 -0.039105 -0.201777
v 0.196077 -0.064948 0.365686
v 0.196077 0.340205 0.365686
v -0.209075 0.340205 0.364767
v -0.209075 -0.064948 0.364767
v 0.196578 0.340205 0.144494
v 0.196578 -0.064948 0.144494
v -0.208574 -0.064948 0.143576
v -0.208574 0.340205 0.143576
v 0.384068 0.006825 -0.154081
v 0.384068 0.268432 -0.154081
v 0.383474 0.268432 0.107525
v 0.383474 0.006825 0.107525
v 0.384654 0.527017 -0.412665
v 0.384654 -0.251760 -0.412665
v 0.382888 -0.251760 0.366109
v 0.382888 0.527017 0.366109
v 0.534255 0.151457 -0.036765
v 0.534255 0.123800 -0.036765
v 0.534193 0.123800 -0.009109
v 0.534193 0.151457 -0.009109
v -0.394121 -0.251760 -0.414431
v -0.394121 0.527017 -0.414431
v -0.395887 0.527017 0.364344
v -0.395887 -0.251760 0.364344
v -0.588446 0.131507 -0.031604
v -0.588446 0.143750 -0.031604
v -0.588473 0.143750 -0.019361
v -0.588473 0.131507 -0.019361
v 0.572605 0.562757 0.212922
v 0.572605 0.688349 0.212922
v 0.572605 0.562757 0.087330
v 0.572605 0.688349 0.087330
v 0.698197 0.562757 0.212922
v 0.698197 0.688349 0.212922
v 0.698197 0.562757 0.087330
v 0.698197 0.688349 0.087330
v -0.013120 0.848845 -0.176665
v -0.013120 0.974437 -0.176665
v -0.013120 0.848845 -0.302257
v -0.013120 0.974437 -0.302257
v 0.112472 0.848845 -0.176665
v 0.112472 0.974437 -0.176665
v 0.112472 0.848845 -0.302257
v 0.112472 0.974437 -0.302257
v -0.701137 0.665468 0.149335
v -0.701137 0.791060 0.149335
v -0.701137 0.665468 0.023743
v -0.701137 0.791060 0.023743
v -0.575545 0.665468 0.149335
v -0.575545 0.791060 0.149335
v -0.575545 0.665468 0.023743
v -0.575545 0.791060 0.023743
v -0.807646 0.147677 0.318670
v -0.807646 0.273269 0.318670
v -0.807646 0.147677 0.193078
v -0.807646 0.273269 0.193078
v -0.682054 0.147677 0.318670
v -0.682054 0.273269 0.318670
v -0.682054 0.147677 0.193078
v -0.682054 0.273269 0.193078
v 0.488030 0.147677 -0.360742
v 0.488030 0.273269 -0.360742
v 0.488030 0.147677 -0.486335
v 0.488030 0.273269 -0.486335
v 0.613622 0.147677 -0.360742
v 0.613622 0.273269 -0.360742
v 0.613622 0.147677 -0.486335
v 0.613622 0.273269 -0.486335
vn -0.0000 1.0000 -0.0000
vn -0.6614 0.7500 -0.0015
vn 0.0023 -0.0000 -1.0000
vn -0.0000 -1.0000 -0.0000
vn 0.6120 -0.0000 0.7909
vn -0.0023 -0.0000 1.0000
vn -1.0000 -0.0000 -0.0023
vn 1.0000 -0.0000 0.0023
vn 0.6138 -0.7895 0.0014
vn 0.6138 0.7895 0.0014
vn 0.6156 -0.0000 -0.7881
vn -0.6597 -0.0000 -0.7515
vn -0.6614 -0.7500 -0.0015
vn -0.6631 -0.0000 0.7485
vn -1.0000 -0.0000 -0.0000
vn -0.0000 -0.0000 -1.0000
vn 1.0000 -0.0000 -0.0000
vn -0.0000 -0.0000 1.0000
vt 0.875000 0.500000
vt 0.625000 0.750000
vt 0.625000 0.500000
vt 0.556734 0.818266
vt 0.556734 0.931734
vt 0.625000 0.000000
vt 0.375000 0.250000
vt 0.375000 0.000000
vt 0.375000 0.500000
vt 0.125000 0.750000
vt 0.125000 0.500000
vt 0.434970 0.559970
vt 0.434970 0.690030
vt 0.458010 0.416990
vt 0.541990 0.416990
vt 0.565030 0.559970
vt 0.565030 0.690030
vt 0.375000 0.750000
vt 0.000000 0.000000
vt 0.625000 0.250000
vt 0.458010 0.333010
vt 0.541990 0.333010
vt 0.375000 1.000000
vt 0.443266 0.931734
vt 0.443266 0.818266
vt 0.625000 1.000000
vt 0.875000 0.750000
s 0
usemtl Material
f 5/1/1 31/2/1 1/3/1
f 3/4/2 34/5/2 35/4/2
f 30/6/3 6/7/3 29/8/3
f 2/9/4 29/10/4 6/11/4
f 9/12/1 15/13/1 12/13/1
f 20/14/5 28/15/5 19/15/5
f 1/3/6 9/12/6 2/9/6
f 31/2/6 10/16/6 1/3/6
f 31/2/6 12/13/6 11/17/6
f 32/18/6 9/12/6 12/13/6
f 13/16/6 15/13/6 14/12/6
f 11/17/4 13/16/4 10/16/4
f 10/16/7 14/12/7 9/12/7
f 12/13/8 16/17/8 11/17/8
f 5/19/1 22/19/1 6/19/1
f 1/3/1 21/20/1 5/20/1
f 2/19/1 24/19/1 1/19/1
f 6/7/1 23/9/1 2/9/1
f 17/21/8 21/20/8 18/22/8
f 20/14/8 22/7/8 17/21/8
f 18/22/8 24/3/8 19/15/8
f 20/14/8 24/3/8 23/9/8
f 25/22/8 27/14/8 26/21/8
f 17/21/9 27/14/9 20/14/9
f 19/15/10 25/22/10 18/22/10
f 18/22/11 26/21/11 17/21/11
f 7/5/7 29/23/7 8/24/7
f 4/25/7 31/2/7 3/4/7
f 3/4/7 30/26/7 7/5/7
f 8/24/7 32/18/7 4/25/7
f 35/4/7 33/24/7 36/25/7
f 8/24/12 34/5/12 7/5/12
f 4/25/13 33/24/13 8/24/13
f 3/4/14 36/25/14 4/25/14
f 38/6/15 39/7/15 37/8/15
f 40/20/16 43/9/16 39/7/16
f 44/3/17 41/18/17 43/9/17
f 42/2/18 37/23/18 41/18/18
f 43/9/4 37/10/4 39/11/4
f 40/1/1 42/2/1 44/3/1
f 46/6/15 47/7/15 45/8/15
f 48/20/16 51/9/16 47/7/16
f 52/3/17 49/18/17 51/9/17
f 50/2/18 45/23/18 49/18/18
f 51/9/4 45/10/4 47/11/4
f 48/1/1 50/2/1 52/3/1
f 54/6/15 55/7/15 53/8/15
f 56/20/16 59/9/16 55/7/16
f 60/3/17 57/18/17 59/9/17
f 58/2/18 53/23/18 57/18/18
f 59/9/4 53/10/4 55/11/4
f 56/1/1 58/2/1 60/3/1
f 62/6/15 63/7/15 61/8/15
f 64/20/16 67/9/16 63/7/16
f 68/3/17 65/18/17 67/9/17
f 66/2/18 61/23/18 65/18/18
f 67/9/4 61/10/4 63/11/4
f 64/1/1 66/2/1 68/3/1
f 70/6/15 71/7/15 69/8/15
f 72/20/16 75/9/16 71/7/16
f 76/3/17 73/18/17 75/9/17
f 74/2/18 69/23/18 73/18/18
f 75/9/4 69/10/4 71/11/4
f 72/1/1 74/2/1 76/3/1
f 5/1/1 30/27/1 31/2/1
f 3/4/2 7/5/2 34/5/2
f 30/6/3 5/20/3 6/7/3
f 2/9/4 32/18/4 29/10/4
f 9/12/1 14/12/1 15/13/1
f 20/14/5 27/14/5 28/15/5
f 1/3/6 10/16/6 9/12/6
f 31/2/6 11/17/6 10/16/6
f 31/2/6 32/18/6 12/13/6
f 32/18/6 2/9/6 9/12/6
f 13/16/6 16/17/6 15/13/6
f 11/17/4 16/17/4 13/16/4
f 10/16/7 13/16/7 14/12/7
f 12/13/8 15/13/8 16/17/8
f 5/19/1 21/19/1 22/19/1
f 1/3/1 24/3/1 21/20/1
f 2/19/1 23/19/1 24/19/1
f 6/7/1 22/7/1 23/9/1
f 17/21/8 22/7/8 21/20/8
f 20/14/8 23/9/8 22/7/8
f 18/22/8 21/20/8 24/3/8
f 20/14/8 19/15/8 24/3/8
f 25/22/8 28/15/8 27/14/8
f 17/21/9 26/21/9 27/14/9
f 19/15/10 28/15/10 25/22/10
f 18/22/11 25/22/11 26/21/11
f 7/5/7 30/26/7 29/23/7
f 4/25/7 32/18/7 31/2/7
f 3/4/7 31/2/7 30/26/7
f 8/24/7 29/23/7 32/18/7
f 35/4/7 34/5/7 33/24/7
f 8/24/12 33/24/12 34/5/12
f 4/25/13 36/25/13 33/24/13
f 3/4/14 35/4/14 36/25/14
f 38/6/15 40/20/15 39/7/15
f 40/20/16 44/3/16 43/9/16
f 44/3/17 42/2/17 41/18/17
f 42/2/18 38/26/18 37/23/18
f 43/9/4 41/18/4 37/10/4
f 40/1/1 38/27/1 42/2/1
f 46/6/15 48/20/15 47/7/15
f 48/20/16 52/3/16 51/9/16
f 52/3/17 50/2/17 49/18/17
f 50/2/18 46/26/18 45/23/18
f 51/9/4 49/18/4 45/10/4
f 48/1/1 46/27/1 50/2/1
f 54/6/15 56/20/15 55/7/15
f 56/20/16 60/3/16 59/9/16
f 60/3/17 58/2/17 57/18/17
f 58/2/18 54/26/18 53/23/18
f 59/9/4 57/18/4 53/10/4
f 56/1/1 54/27/1 58/2/1
f 62/6/15 64/20/15 63/7/15
f 64/20/16 68/3/16 67/9/16
f 68/3/17 66/2/17 65/18/17
f 66/2/18 62/26/18 61/23/18
f 67/9/4 65/18/4 61/10/4
f 64/1/1 62/27/1 66/2/1
f 70/6/15 72/20/15 71/7/15
f 72/20/16 76/3/16 75/9/16
f 76/3/17 74/2/17 73/18/17
f 74/2/18 70/26/18 69/23/18
f 75/9/4 73/18/4 69/10/4
f 72/1/1 70/27/1 74/2/1
