# Blender 4.4.1
# www.blender.org
mtllib door.mtl
o 円柱
v 0.000000 0.002822 -0.127973
v 0.000000 2.112044 -0.127973
v 0.024966 0.002822 -0.125514
v 0.024966 2.112044 -0.125514
v 0.048973 0.002822 -0.118231
v 0.048973 2.112044 -0.118231
v 0.071098 0.002822 -0.106405
v 0.071098 2.112044 -0.106405
v 0.090490 0.002822 -0.090490
v 0.090490 2.112044 -0.090490
v 0.106405 0.002822 -0.071098
v 0.106405 2.112044 -0.071098
v 0.118231 0.002822 -0.048973
v 0.118231 2.112044 -0.048973
v 0.125514 0.002822 -0.024966
v 0.125514 2.112044 -0.024966
v 0.127973 0.002822 0.000000
v 0.127973 2.112044 0.000000
v 0.125514 0.002822 0.024966
v 0.125514 2.112044 0.024966
v 0.118231 0.002822 0.048973
v 0.118231 2.112044 0.048973
v 0.106405 0.002822 0.071098
v 0.106405 2.112044 0.071098
v 0.090490 0.002822 0.090490
v 0.090490 2.112044 0.090490
v 0.071098 0.002822 0.106405
v 0.071098 2.112044 0.106405
v 0.048973 0.002822 0.118231
v 0.048973 2.112044 0.118231
v 0.024966 0.002822 0.125514
v 0.024966 2.112044 0.125514
v 0.000000 0.002822 0.127973
v 0.000000 2.112044 0.127973
v -0.024966 0.002822 0.125514
v -0.024966 2.112044 0.125514
v -0.048973 0.002822 0.118231
v -0.048973 2.112044 0.118231
v -0.071098 0.002822 0.106405
v -0.071098 2.112044 0.106405
v -0.090490 0.002822 0.090490
v -0.090490 2.112044 0.090490
v -0.106405 0.002822 0.071098
v -0.106405 2.112044 0.071098
v -0.118231 0.002822 0.048973
v -0.118231 2.112044 0.048973
v -0.125514 0.002822 0.024966
v -0.125514 2.112044 0.024966
v -0.127973 0.002822 0.000000
v -0.127973 2.112044 0.000000
v -0.125514 0.002822 -0.024966
v -0.125514 2.112044 -0.024966
v -0.118231 0.002822 -0.048973
v -0.118231 2.112044 -0.048973
v -0.106405 0.002822 -0.071098
v -0.106405 2.112044 -0.071098
v -0.090490 0.002822 -0.090490
v -0.090490 2.112044 -0.090490
v -0.071098 0.002822 -0.106405
v -0.071098 2.112044 -0.106405
v -0.048973 0.002822 -0.118231
v -0.048973 2.112044 -0.118231
v -0.024966 0.002822 -0.125514
v -0.024966 2.112044 -0.125514
v -0.100954 0.924334 0.033893
v -0.100954 2.095021 0.033893
v -0.100954 1.445987 -1.363412
v 0.100954 0.924334 0.033893
v 0.100954 2.095021 0.033893
v 0.100954 1.445987 -1.363412
vn 0.0980 -0.0000 -0.9952
vn 0.2903 -0.0000 -0.9569
vn 0.4714 -0.0000 -0.8819
vn 0.6344 -0.0000 -0.7730
vn 0.7730 -0.0000 -0.6344
vn 0.8819 -0.0000 -0.4714
vn 0.9569 -0.0000 -0.2903
vn 0.9952 -0.0000 -0.0980
vn 0.9952 -0.0000 0.0980
vn 0.9569 -0.0000 0.2903
vn 0.8819 -0.0000 0.4714
vn 0.7730 -0.0000 0.6344
vn 0.6344 -0.0000 0.7730
vn 0.4714 -0.0000 0.8819
vn 0.2903 -0.0000 0.9569
vn 0.0980 -0.0000 0.9952
vn -0.0980 -0.0000 0.9952
vn -0.2903 -0.0000 0.9569
vn -0.4714 -0.0000 0.8819
vn -0.6344 -0.0000 0.7730
vn -0.7730 -0.0000 0.6344
vn -0.8819 -0.0000 0.4714
vn -0.9569 -0.0000 0.2903
vn -0.9952 -0.0000 0.0980
vn -0.9952 -0.0000 -0.0980
vn -0.9569 -0.0000 -0.2903
vn -0.8819 -0.0000 -0.4714
vn -0.7730 -0.0000 -0.6344
vn -0.6344 -0.0000 -0.7730
vn -0.4714 -0.0000 -0.8819
vn -0.0000 1.0000 -0.0000
vn -0.2903 -0.0000 -0.9569
vn -0.0980 -0.0000 -0.9952
vn -0.0000 -1.0000 -0.0000
vn -1.0000 -0.0000 -0.0000
vn 1.0000 -0.0000 -0.0000
vn -0.0000 -0.0000 1.0000
vn -0.0000 -0.9368 -0.3497
vn -0.0000 0.9069 -0.4213
vn 0.0001 1.0000 -0.0000
vn -0.0001 1.0000 -0.0000
vt 0.151044 0.683832
vt 0.142915 0.000390
vt 0.151044 0.000390
vt 0.257939 0.683832
vt 0.249810 0.000390
vt 0.257939 0.000390
vt 0.133228 0.683832
vt 0.125100 0.000390
vt 0.133228 0.000390
vt 0.079781 0.683832
vt 0.071652 0.000389
vt 0.079781 0.000389
vt 0.186676 0.683832
vt 0.178547 0.000390
vt 0.186676 0.000390
vt 0.240123 0.683832
vt 0.231994 0.000390
vt 0.240123 0.000390
vt 0.061966 0.683832
vt 0.053837 0.000389
vt 0.061966 0.000389
vt 0.159952 0.683832
vt 0.151823 0.000390
vt 0.159952 0.000390
vt 0.195583 0.683832
vt 0.187455 0.000390
vt 0.195583 0.000390
vt 0.088689 0.683832
vt 0.080560 0.000390
vt 0.088689 0.000390
vt 0.026334 0.683832
vt 0.018205 0.000389
vt 0.026334 0.000389
vt 0.204491 0.683832
vt 0.196363 0.000390
vt 0.204491 0.000390
vt 0.213399 0.683832
vt 0.205270 0.000390
vt 0.213399 0.000390
vt 0.249031 0.683832
vt 0.240902 0.000390
vt 0.249031 0.000390
vt 0.070873 0.683832
vt 0.062745 0.000389
vt 0.070873 0.000389
vt 0.168860 0.683832
vt 0.160731 0.000390
vt 0.168860 0.000390
vt 0.222307 0.683832
vt 0.214178 0.000390
vt 0.222307 0.000390
vt 0.097597 0.683832
vt 0.089468 0.000390
vt 0.097597 0.000390
vt 0.035242 0.683832
vt 0.027113 0.000389
vt 0.035242 0.000389
vt 0.231215 0.683832
vt 0.223086 0.000390
vt 0.231215 0.000390
vt 0.008518 0.683832
vt 0.000390 0.000390
vt 0.008518 0.000390
vt 0.275754 0.683832
vt 0.267625 0.000389
vt 0.275754 0.000389
vt 0.044150 0.683832
vt 0.036021 0.000390
vt 0.044150 0.000390
vt 0.115413 0.683832
vt 0.107284 0.000390
vt 0.115413 0.000390
vt 0.177768 0.683832
vt 0.169639 0.000390
vt 0.177768 0.000390
vt 0.266846 0.683832
vt 0.258718 0.000390
vt 0.266846 0.000390
vt 0.142136 0.683832
vt 0.134007 0.000390
vt 0.142136 0.000390
vt 0.106505 0.683832
vt 0.098376 0.000389
vt 0.106505 0.000389
vt 0.017426 0.683832
vt 0.009297 0.000390
vt 0.017426 0.000390
vt 0.284662 0.683832
vt 0.276533 0.000389
vt 0.284662 0.000389
vt 0.576574 0.515350
vt 0.634934 0.509602
vt 0.640682 0.567962
vt 0.053058 0.683832
vt 0.044929 0.000390
vt 0.053058 0.000390
vt 0.124321 0.683832
vt 0.116192 0.000390
vt 0.124321 0.000390
vt 0.484049 0.537592
vt 0.529380 0.500390
vt 0.566582 0.545721
vt 0.285441 0.160189
vt 0.629472 0.000390
vt 0.629472 0.499610
vt 0.630251 0.499611
vt 0.630251 0.000390
vt 0.974282 0.160189
vt 0.483270 0.879722
vt 0.417846 0.500390
vt 0.483270 0.500390
vt 0.351644 0.983675
vt 0.417067 0.500390
vt 0.417067 0.983675
vt 0.350865 0.500390
vt 0.285441 0.999610
vt 0.285441 0.500390
vt 0.142915 0.683832
vt 0.249810 0.683832
vt 0.125100 0.683832
vt 0.071652 0.683832
vt 0.178547 0.683832
vt 0.231994 0.683832
vt 0.053837 0.683832
vt 0.151823 0.683832
vt 0.187455 0.683832
vt 0.080560 0.683832
vt 0.018205 0.683832
vt 0.196363 0.683832
vt 0.205270 0.683832
vt 0.240902 0.683832
vt 0.062745 0.683832
vt 0.160731 0.683832
vt 0.214178 0.683832
vt 0.089468 0.683832
vt 0.027113 0.683832
vt 0.223086 0.683832
vt 0.000390 0.683832
vt 0.267625 0.683832
vt 0.036021 0.683832
vt 0.107284 0.683832
vt 0.169639 0.683832
vt 0.258718 0.683832
vt 0.134007 0.683832
vt 0.098376 0.683832
vt 0.009297 0.683832
vt 0.276533 0.683832
vt 0.634934 0.573710
vt 0.628175 0.578226
vt 0.620665 0.581337
vt 0.612692 0.582923
vt 0.604564 0.582923
vt 0.596591 0.581337
vt 0.589081 0.578226
vt 0.582322 0.573710
vt 0.576574 0.567962
vt 0.572058 0.561203
vt 0.568947 0.553693
vt 0.567361 0.545721
vt 0.567361 0.537592
vt 0.568947 0.529619
vt 0.572058 0.522109
vt 0.582322 0.509602
vt 0.604563 0.500390
vt 0.589081 0.505086
vt 0.596591 0.501975
vt 0.612692 0.500390
vt 0.620665 0.501975
vt 0.628175 0.505086
vt 0.640682 0.515350
vt 0.649895 0.537592
vt 0.645198 0.522109
vt 0.648309 0.529619
vt 0.649895 0.545721
vt 0.648309 0.553693
vt 0.645198 0.561203
vt 0.044929 0.683832
vt 0.116192 0.683832
vt 0.564996 0.553693
vt 0.561886 0.561203
vt 0.557369 0.567962
vt 0.551621 0.573710
vt 0.544863 0.578226
vt 0.537352 0.581337
vt 0.529380 0.582923
vt 0.521251 0.582923
vt 0.513278 0.581337
vt 0.505768 0.578226
vt 0.499009 0.573710
vt 0.493261 0.567962
vt 0.488745 0.561203
vt 0.485635 0.553693
vt 0.484049 0.545721
vt 0.485635 0.529619
vt 0.488745 0.522109
vt 0.493261 0.515350
vt 0.499009 0.509602
vt 0.505768 0.505086
vt 0.513278 0.501975
vt 0.521251 0.500390
vt 0.537352 0.501975
vt 0.544863 0.505086
vt 0.551621 0.509602
vt 0.557369 0.515350
vt 0.561885 0.522109
vt 0.564996 0.529619
vt 0.566582 0.537592
vt 0.417846 0.879722
vt 0.351644 0.500390
vt 0.350865 0.999610
s 0
usemtl マテリアル.001
f 2/1/1 3/2/1 1/3/1
f 4/4/2 5/5/2 3/6/2
f 6/7/3 7/8/3 5/9/3
f 8/10/4 9/11/4 7/12/4
f 10/13/5 11/14/5 9/15/5
f 12/16/6 13/17/6 11/18/6
f 14/19/7 15/20/7 13/21/7
f 16/22/8 17/23/8 15/24/8
f 18/25/9 19/26/9 17/27/9
f 20/28/10 21/29/10 19/30/10
f 22/31/11 23/32/11 21/33/11
f 24/34/12 25/35/12 23/36/12
f 26/37/13 27/38/13 25/39/13
f 28/40/14 29/41/14 27/42/14
f 30/43/15 31/44/15 29/45/15
f 32/46/16 33/47/16 31/48/16
f 34/49/17 35/50/17 33/51/17
f 36/52/18 37/53/18 35/54/18
f 38/55/19 39/56/19 37/57/19
f 40/58/20 41/59/20 39/60/20
f 42/61/21 43/62/21 41/63/21
f 44/64/22 45/65/22 43/66/22
f 46/67/23 47/68/23 45/69/23
f 48/70/24 49/71/24 47/72/24
f 50/73/25 51/74/25 49/75/25
f 52/76/26 53/77/26 51/78/26
f 54/79/27 55/80/27 53/81/27
f 56/82/28 57/83/28 55/84/28
f 58/85/29 59/86/29 57/87/29
f 60/88/30 61/89/30 59/90/30
f 38/91/31 22/92/31 6/93/31
f 62/94/32 63/95/32 61/96/32
f 64/97/33 1/98/33 63/99/33
f 31/100/34 47/101/34 63/102/34
f 65/103/35 66/104/35 67/105/35
f 70/106/36 69/107/36 68/108/36
f 69/109/37 65/110/37 68/111/37
f 70/112/38 65/113/38 67/114/38
f 69/115/39 67/116/39 66/117/39
f 2/1/1 4/118/1 3/2/1
f 4/4/2 6/119/2 5/5/2
f 6/7/3 8/120/3 7/8/3
f 8/10/4 10/121/4 9/11/4
f 10/13/5 12/122/5 11/14/5
f 12/16/6 14/123/6 13/17/6
f 14/19/7 16/124/7 15/20/7
f 16/22/8 18/125/8 17/23/8
f 18/25/9 20/126/9 19/26/9
f 20/28/10 22/127/10 21/29/10
f 22/31/11 24/128/11 23/32/11
f 24/34/12 26/129/12 25/35/12
f 26/37/13 28/130/13 27/38/13
f 28/40/14 30/131/14 29/41/14
f 30/43/15 32/132/15 31/44/15
f 32/46/16 34/133/16 33/47/16
f 34/49/17 36/134/17 35/50/17
f 36/52/18 38/135/18 37/53/18
f 38/55/19 40/136/19 39/56/19
f 40/58/20 42/137/20 41/59/20
f 42/61/21 44/138/21 43/62/21
f 44/64/22 46/139/22 45/65/22
f 46/67/23 48/140/23 47/68/23
f 48/70/24 50/141/24 49/71/24
f 50/73/25 52/142/25 51/74/25
f 52/76/26 54/143/26 53/77/26
f 54/79/27 56/144/27 55/80/27
f 56/82/28 58/145/28 57/83/28
f 58/85/29 60/146/29 59/86/29
f 60/88/30 62/147/30 61/89/30
f 6/93/31 4/148/31 2/149/31
f 2/149/31 64/150/31 6/93/31
f 64/150/31 62/151/31 6/93/31
f 62/151/31 60/152/31 58/153/31
f 58/153/31 56/154/31 62/151/31
f 56/154/31 54/155/31 62/151/31
f 54/155/40 52/156/40 50/157/40
f 50/157/31 48/158/31 54/155/31
f 48/158/31 46/159/31 54/155/31
f 46/159/31 44/160/31 42/161/31
f 42/161/31 40/162/31 46/159/31
f 40/162/31 38/91/31 46/159/31
f 38/91/31 36/163/31 30/164/31
f 36/163/31 34/165/31 30/164/31
f 34/165/31 32/166/31 30/164/31
f 30/164/31 28/167/31 26/168/31
f 26/168/31 24/169/31 30/164/31
f 24/169/31 22/92/31 30/164/31
f 22/92/31 20/170/31 14/171/31
f 20/170/31 18/172/31 14/171/31
f 18/172/41 16/173/41 14/171/41
f 14/171/31 12/174/31 10/175/31
f 10/175/31 8/176/31 14/171/31
f 8/176/31 6/93/31 14/171/31
f 6/93/31 62/151/31 54/155/31
f 54/155/31 46/159/31 38/91/31
f 38/91/31 30/164/31 22/92/31
f 22/92/31 14/171/31 6/93/31
f 6/93/31 54/155/31 38/91/31
f 62/94/32 64/177/32 63/95/32
f 64/97/33 2/178/33 1/98/33
f 63/102/34 1/179/34 3/180/34
f 3/180/34 5/181/34 7/182/34
f 7/182/34 9/183/34 11/184/34
f 11/184/34 13/185/34 15/186/34
f 15/186/34 17/187/34 19/188/34
f 19/188/34 21/189/34 23/190/34
f 23/190/34 25/191/34 27/192/34
f 27/192/34 29/193/34 31/100/34
f 31/100/34 33/194/34 35/195/34
f 35/195/34 37/196/34 39/197/34
f 39/197/34 41/198/34 43/199/34
f 43/199/34 45/200/34 47/101/34
f 47/101/34 49/201/34 51/202/34
f 51/202/34 53/203/34 55/204/34
f 55/204/34 57/205/34 59/206/34
f 59/206/34 61/207/34 63/102/34
f 63/102/34 3/180/34 7/182/34
f 7/182/34 11/184/34 63/102/34
f 11/184/34 15/186/34 63/102/34
f 15/186/34 19/188/34 23/190/34
f 23/190/34 27/192/34 15/186/34
f 27/192/34 31/100/34 15/186/34
f 31/100/34 35/195/34 39/197/34
f 39/197/34 43/199/34 31/100/34
f 43/199/34 47/101/34 31/100/34
f 47/101/34 51/202/34 55/204/34
f 55/204/34 59/206/34 47/101/34
f 59/206/34 63/102/34 47/101/34
f 63/102/34 15/186/34 31/100/34
f 69/109/37 66/208/37 65/110/37
f 70/112/38 68/209/38 65/113/38
f 69/115/39 70/210/39 67/116/39
